<svg width="296" height="241" viewBox="0 0 296 241" fill="none" xmlns="http://www.w3.org/2000/svg">
<path d="M258.735 116.917H59.1602V236.967H258.735V116.917Z" fill="#E6E6E6"/>
<path d="M252.992 127.34H64.9033V227.622H252.992V127.34Z" fill="white"/>
<path d="M225.057 132.731H218.892V138.905H225.057V132.731Z" fill="#4DC5AC"/>
<path d="M100.338 145.977H94.1729V152.151H100.338V145.977Z" fill="#6E67CB"/>
<path d="M114.548 163.662H93.9951V184.242H114.548V163.662Z" fill="#E6E6E6"/>
<path d="M258.735 110.087H59.1602V120.87H258.735V110.087Z" fill="#6E67CB"/>
<path d="M67.1565 119.865C68.2548 119.865 69.1451 118.973 69.1451 117.873C69.1451 116.774 68.2548 115.882 67.1565 115.882C66.0583 115.882 65.168 116.774 65.168 117.873C65.168 118.973 66.0583 119.865 67.1565 119.865Z" fill="white"/>
<path d="M74.7044 119.865C75.8026 119.865 76.693 118.973 76.693 117.873C76.693 116.774 75.8026 115.882 74.7044 115.882C73.6061 115.882 72.7158 116.774 72.7158 117.873C72.7158 118.973 73.6061 119.865 74.7044 119.865Z" fill="white"/>
<path d="M82.2522 119.865C83.3505 119.865 84.2408 118.973 84.2408 117.873C84.2408 116.774 83.3505 115.882 82.2522 115.882C81.154 115.882 80.2637 116.774 80.2637 117.873C80.2637 118.973 81.154 119.865 82.2522 119.865Z" fill="white"/>
<path d="M279.913 236.967H16.0869V237.686H279.913V236.967Z" fill="#E6E6E6"/>
<path d="M186.217 165.72H135.863V168.615H186.217V165.72Z" fill="#E6E6E6"/>
<path d="M213.62 176.278H135.863V179.173H213.62V176.278Z" fill="#6E67CB"/>
<path d="M199.233 186.225H135.863V189.119H199.233V186.225Z" fill="#E6E6E6"/>
<path d="M172.858 196.135H135.863V199.029H172.858V196.135Z" fill="#E6E6E6"/>
<path d="M191.697 206.044H135.863V208.938H191.697V206.044Z" fill="#E6E6E6"/>
<path d="M235.676 132.731H229.511V138.905H235.676V132.731Z" fill="#4DC5AC"/>
<path d="M246.296 132.731H240.13V138.905H246.296V132.731Z" fill="#4DC5AC"/>
<path opacity="0.997" d="M233.773 199.029C240.689 199.029 246.295 193.415 246.295 186.49C246.295 179.566 240.689 173.952 233.773 173.952C226.858 173.952 221.252 179.566 221.252 186.49C221.252 193.415 226.858 199.029 233.773 199.029Z" fill="#6E67CB"/>
<path d="M83.7444 44.116C91.5299 44.116 97.8413 37.7961 97.8413 30C97.8413 22.204 91.5299 15.884 83.7444 15.884C75.9589 15.884 69.6475 22.204 69.6475 30C69.6475 37.7961 75.9589 44.116 83.7444 44.116Z" fill="#1C443A"/>
<path d="M48.6622 150.778H42.4883L39.5518 126.939H48.6615L48.6622 150.778Z" fill="#FEB8B8"/>
<path d="M38.0811 149.012H49.9849V156.517H30.5859C30.5859 154.527 31.3756 152.618 32.7812 151.21C34.1868 149.803 36.0933 149.012 38.0811 149.012Z" fill="#1B1846"/>
<path d="M39.0276 147.329L33.1387 145.478L37.4647 121.851L46.1562 124.583L39.0276 147.329Z" fill="#FEB8B8"/>
<path d="M29.4557 142.472L40.8137 146.041L38.5695 153.202L20.0605 147.386C20.3553 146.446 20.8321 145.573 21.4637 144.817C22.0954 144.061 22.8696 143.437 23.742 142.981C24.6145 142.524 25.5681 142.245 26.5486 142.157C27.529 142.07 28.517 142.177 29.4561 142.472L29.4557 142.472Z" fill="#1B1846"/>
<path d="M41.0353 137.816C40.7656 137.816 40.4981 137.767 40.2456 137.672L35.7032 135.967C35.1934 135.774 34.7699 135.404 34.5098 134.924C34.2497 134.444 34.1705 133.887 34.2864 133.354C35.4296 128.206 39.326 110.682 41.4596 101.282C43.9898 90.1331 80.9025 88.0613 82.4725 87.9786L82.6017 87.9718L86.7541 93.1947C88.2545 98.024 87.7789 101.791 85.3405 104.391C78.2251 111.977 56.9816 107.27 54.4485 106.674L43.1578 136.355C42.9932 136.785 42.7024 137.154 42.3236 137.415C41.9449 137.676 41.4961 137.816 41.0364 137.816H41.0353Z" fill="#275E50"/>
<path d="M47.5808 141.345C47.3111 141.345 47.0436 141.296 46.7911 141.201L42.2501 139.496C41.7403 139.303 41.3167 138.933 41.0566 138.453C40.7966 137.973 40.7173 137.416 40.8333 136.883C41.9766 131.735 45.8729 114.211 48.0065 104.811C50.5367 93.662 87.4494 91.5902 89.0195 91.5076L89.1487 91.5007L93.2995 96.7251C94.7999 101.554 94.3243 105.321 91.886 107.921C84.771 115.505 63.527 110.8 60.9939 110.204L49.7018 139.884C49.5373 140.314 49.2464 140.683 48.8677 140.944C48.4889 141.205 48.0401 141.345 47.5805 141.345L47.5808 141.345Z" fill="#275E50"/>
<path d="M34.4428 68.7365C34.6096 68.96 34.7585 69.1962 34.8883 69.4431L59.7195 72.0627L63.2946 67.155L71.3957 71.5885L64.375 83.4972L33.9216 75.722C33.1533 76.4721 32.1751 76.9702 31.1172 77.1501C30.0592 77.3299 28.9717 77.183 27.9992 76.7288C27.0267 76.2747 26.2153 75.5348 25.6729 74.6077C25.1305 73.6805 24.8829 72.6099 24.963 71.5384C25.043 70.4669 25.447 69.4451 26.121 68.6091C26.7951 67.773 27.7074 67.1623 28.7366 66.8581C29.7658 66.5539 30.863 66.5706 31.8825 66.9061C32.9019 67.2416 33.7952 67.8799 34.4435 68.7361L34.4428 68.7365Z" fill="#FEB8B8"/>
<path d="M92.1466 98.725C91.7876 98.7242 91.4338 98.6379 91.1146 98.4734C86.1493 95.9451 76.4807 91.5669 67.5149 90.6507C67.2081 90.6206 66.9109 90.5266 66.6425 90.3747C66.3741 90.2228 66.1404 90.0163 65.9564 89.7687C65.7688 89.5183 65.6347 89.232 65.5625 88.9275C65.4903 88.623 65.4815 88.3069 65.5368 87.9988C66.3458 83.5142 68.2016 72.0943 67.9625 62.9421C67.8921 60.128 68.78 57.3737 70.4802 55.1319C72.1804 52.8901 74.5917 51.2943 77.3178 50.6067C78.9585 50.1732 80.6249 49.8442 82.3071 49.6215C84.2412 49.3763 86.2057 49.588 88.0434 50.2397C89.881 50.8914 91.5407 51.965 92.8894 53.3746C94.2382 54.7841 95.2385 56.4903 95.8104 58.3566C96.3822 60.2229 96.5095 62.1973 96.1822 64.1217C94.5835 73.6064 92.9714 86.8537 94.3724 96.1011C94.4368 96.5156 94.3853 96.9398 94.2236 97.3268C94.062 97.7138 93.7966 98.0484 93.4567 98.2937C93.0765 98.5724 92.6178 98.7234 92.1466 98.725Z" fill="#CCCCCC"/>
<path d="M68.4224 74.6006C68.1128 74.6001 67.8067 74.5361 67.5228 74.4126L61.0542 71.609C60.5033 71.3695 60.0697 70.9208 59.8486 70.3616C59.6276 69.8023 59.6371 69.178 59.8751 68.6258L64.8752 57.0596C65.1722 56.3587 65.6042 55.7233 66.1465 55.1896C66.6887 54.6559 67.3306 54.2344 68.0356 53.9491C68.7405 53.6638 69.4947 53.5204 70.255 53.5269C71.0153 53.5335 71.7668 53.69 72.4668 53.9874C73.1667 54.2848 73.8012 54.7174 74.3342 55.2603C74.8672 55.8033 75.2881 56.4461 75.573 57.152C75.8579 57.8579 76.0012 58.613 75.9946 59.3744C75.9881 60.1357 75.8318 60.8883 75.5348 61.5892C75.524 61.6146 75.513 61.64 75.5019 61.6654L70.5017 73.2319C70.3257 73.6379 70.0352 73.9836 69.6659 74.2267C69.2965 74.4699 68.8644 74.5998 68.4224 74.6006Z" fill="#CCCCCC"/>
<path d="M83.229 45.6868C90.0584 45.6868 95.5947 40.1429 95.5947 33.3043C95.5947 26.4657 90.0584 20.9219 83.229 20.9219C76.3996 20.9219 70.8633 26.4657 70.8633 33.3043C70.8633 40.1429 76.3996 45.6868 83.229 45.6868Z" fill="#FEB8B8"/>
<path d="M70.6416 27.2195C76.4988 30.7999 83.1021 32.9786 89.9375 33.5861L87.9034 31.1459C89.3843 31.6942 90.9427 32.0041 92.5205 32.0639C93.3105 32.0869 94.0949 31.9241 94.8107 31.5885C95.5265 31.253 96.1538 30.7542 96.6423 30.132C97.0411 29.4862 97.2779 28.7534 97.3328 27.9961C97.3876 27.2388 97.2587 26.4795 96.9571 25.7829C96.3373 24.3929 95.3726 23.1848 94.1548 22.2737C91.9961 20.5638 89.4485 19.4152 86.739 18.9303C84.0294 18.4454 81.2422 18.6392 78.6257 19.4946C76.8308 20.0317 75.2233 21.0642 73.9873 22.4739C72.815 23.9221 70.5583 25.2124 71.1585 26.9769L70.6416 27.2195Z" fill="#1C443A"/>
<path d="M84.335 16.7884C86.7997 14.285 89.7826 12.353 93.0735 11.1285C95.1623 10.2485 97.4533 9.96382 99.6936 10.3057C101.902 10.7507 103.991 12.2804 104.607 14.4503C105.109 16.2245 104.59 18.1349 103.809 19.8059C103.027 21.4769 101.983 23.0249 101.35 24.7574C100.705 26.5252 100.511 28.4263 100.786 30.2882C101.061 32.1502 101.795 33.9139 102.923 35.4194C104.052 36.9248 105.537 38.1243 107.246 38.9088C108.954 39.6934 110.831 40.0383 112.707 39.9121C110.537 40.2036 108.537 41.2248 106.416 41.7679C104.295 42.311 101.792 42.2747 100.215 40.7529C98.5478 39.143 98.5144 36.5256 98.5952 34.2076L98.9542 23.8696C99.0152 22.1123 99.0676 20.2986 98.4344 18.6578C97.8012 17.017 96.2972 15.5811 94.5413 15.5962C93.2103 15.6073 92.0326 16.415 90.9651 17.2111C89.8976 18.0073 88.768 18.8566 87.4424 18.9752C86.1168 19.0938 84.6031 18.1126 84.7022 16.7827" fill="#1C443A"/>
<path d="M62.4398 95.544C61.6204 95.543 60.8115 95.36 60.0713 95.0083C59.3311 94.6566 58.678 94.1448 58.1591 93.5099C57.6402 92.875 57.2684 92.1327 57.0704 91.3366C56.8724 90.5405 56.8533 89.7103 57.0143 88.9059C57.1753 88.1014 57.5125 87.3428 58.0016 86.6845C58.4907 86.0263 59.1194 85.4849 59.8426 85.0993C60.5658 84.7137 61.3654 84.4935 62.1838 84.4546C63.0022 84.4157 63.8191 84.559 64.5755 84.8743C64.803 84.9705 65.0236 85.0824 65.2356 85.2093L87.7613 75.0837L88.3941 68.9662L98.104 68.7059L98.0398 78.8904C98.028 80.0704 97.6365 81.2151 96.9235 82.1545C96.2105 83.094 95.2138 83.7782 94.0817 84.1054L67.7403 91.6122C67.6895 91.7864 67.6296 91.9579 67.5609 92.1258C67.1382 93.1366 66.4271 94.0001 65.5166 94.6081C64.6061 95.2161 63.5367 95.5415 62.4423 95.5436L62.4398 95.544Z" fill="#FEB8B8"/>
<path d="M97.281 73.6962C97.0049 73.8361 96.703 73.9178 96.3941 73.9363L89.3587 74.3694C88.7592 74.4056 88.1698 74.2022 87.7198 73.8039C87.2698 73.4055 86.996 72.8447 86.9584 72.2444L86.1863 59.6643C86.0938 58.1306 86.6131 56.6228 87.6301 55.4722C88.6471 54.3216 90.0786 53.6223 91.6102 53.5279C93.1418 53.4336 94.6482 53.9519 95.7983 54.9689C96.9485 55.986 97.6485 57.4187 97.7444 58.9523L98.5169 71.5324C98.5437 71.9743 98.4411 72.4144 98.2217 72.7988C98.0023 73.1832 97.6756 73.495 97.2817 73.6962H97.281Z" fill="#CCCCCC"/>
<path d="M83.1149 93.2867H41.0933C40.7408 93.2867 40.4551 93.5729 40.4551 93.9258V96.1766C40.4551 96.5295 40.7408 96.8156 41.0933 96.8156H83.1149C83.4673 96.8156 83.7531 96.5295 83.7531 96.1766V93.9258C83.7531 93.5729 83.4673 93.2867 83.1149 93.2867Z" fill="url(#paint0_linear_2490_13983)"/>
<path d="M24.3086 93.5391V68.8356C24.3096 67.9669 24.6548 67.134 25.2682 66.5197C25.8817 65.9053 26.7135 65.5598 27.5811 65.5587H72.3896C73.2572 65.5597 74.089 65.9052 74.7025 66.5196C75.316 67.1339 75.6611 67.9668 75.6621 68.8356V93.5391C75.6611 94.4079 75.316 95.2408 74.7025 95.8552C74.089 96.4695 73.2572 96.8151 72.3896 96.816H27.5811C26.7135 96.815 25.8817 96.4694 25.2682 95.8551C24.6548 95.2407 24.3096 94.4078 24.3086 93.5391Z" fill="url(#paint1_linear_2490_13983)"/>
<path d="M50.5248 84.2135C52.1932 84.2135 53.5457 82.8592 53.5457 81.1886C53.5457 79.5179 52.1932 78.1636 50.5248 78.1636C48.8564 78.1636 47.5039 79.5179 47.5039 81.1886C47.5039 82.8592 48.8564 84.2135 50.5248 84.2135Z" fill="#4DC5AC"/>
<defs>
<linearGradient id="paint0_linear_2490_13983" x1="41.8847" y1="92.6386" x2="42.947" y2="99.6983" gradientUnits="userSpaceOnUse">
<stop stop-color="#A1A1A1"/>
<stop offset="0.515" stop-color="#6D6D6D"/>
<stop offset="1" stop-color="#A1A1A1"/>
</linearGradient>
<linearGradient id="paint1_linear_2490_13983" x1="26.0042" y1="59.8176" x2="57.7614" y2="88.0777" gradientUnits="userSpaceOnUse">
<stop stop-color="#A1A1A1"/>
<stop offset="0.515" stop-color="#6D6D6D"/>
<stop offset="1" stop-color="#A1A1A1"/>
</linearGradient>
</defs>
</svg>
