<svg width="471" height="287" viewBox="0 0 471 287" fill="none" xmlns="http://www.w3.org/2000/svg">
<g clip-path="url(#clip0_1102_20518)">
<path d="M369.514 44.8283C369.514 44.8283 359.146 45.9942 358.476 62.0089C357.917 75.3554 356.779 82.7925 362.224 85.5764C364.169 86.5713 366.456 86.6568 368.536 85.9784L390.752 78.6921C390.752 78.6921 391.084 54.6724 383.392 48.8333C375.7 42.9942 369.514 44.8283 369.514 44.8283Z" fill="#6E67CB"/>
<path d="M381.76 81.6368L370.517 85.3251V69.1797H380.718L381.76 81.6368Z" fill="#FAAFB2"/>
<path d="M347.389 173.283C346.779 176.982 344.306 179.635 341.868 179.208C339.425 178.781 337.943 175.434 338.553 171.736C338.775 170.253 339.364 168.851 340.266 167.65L343.052 152.012L350.633 153.595L347.082 168.841C347.55 170.283 347.656 171.806 347.389 173.283Z" fill="#FAAFB2"/>
<path d="M373.13 277.267H362.602L356.491 221.137H372.773L373.13 277.267Z" fill="#FAAFB2"/>
<path d="M352.346 286.286C351.237 286.286 350.25 286.261 349.51 286.191C346.714 285.935 344.044 283.874 342.704 282.673C342.104 282.136 341.908 281.271 342.22 280.528C342.447 279.995 342.895 279.598 343.454 279.437L350.845 277.332L362.814 269.277L362.95 269.518C363 269.608 364.174 271.719 364.567 273.146C364.718 273.689 364.678 274.141 364.451 274.493C364.295 274.734 364.073 274.874 363.897 274.955C364.113 275.181 364.793 275.638 366.884 275.97C369.942 276.452 370.577 273.297 370.607 273.166L370.627 273.06L370.718 273C372.168 272.066 373.065 271.643 373.372 271.734C373.564 271.789 373.886 271.89 374.753 280.482C374.838 280.754 375.448 282.729 375.035 284.623C374.586 286.683 365.574 285.975 363.771 285.809C363.72 285.814 356.975 286.291 352.351 286.291H352.346V286.286Z" fill="#6E67CB"/>
<path d="M396.923 277.267H386.39L380.284 221.137H396.56L396.923 277.267Z" fill="#FAAFB2"/>
<path d="M376.138 286.286C375.029 286.286 374.042 286.261 373.302 286.191C370.506 285.935 367.836 283.874 366.496 282.673C365.896 282.136 365.7 281.271 366.012 280.528C366.239 279.995 366.687 279.598 367.246 279.437L374.637 277.332L386.606 269.277L386.742 269.518C386.792 269.608 387.966 271.719 388.359 273.146C388.51 273.689 388.47 274.141 388.243 274.493C388.087 274.734 387.865 274.874 387.689 274.955C387.905 275.181 388.585 275.638 390.676 275.97C393.734 276.452 394.369 273.297 394.399 273.166L394.419 273.06L394.51 273C395.965 272.066 396.857 271.643 397.164 271.734C397.356 271.789 397.678 271.89 398.545 280.482C398.63 280.754 399.24 282.729 398.827 284.623C398.378 286.683 389.366 285.975 387.563 285.809C387.512 285.814 380.767 286.291 376.143 286.291H376.138V286.286Z" fill="#6E67CB"/>
<path d="M399.95 139.405H348.784L367.176 79.0237H387.578L399.95 139.405Z" fill="#DFDFE0"/>
<path d="M370.396 79.0288C370.396 79.0288 357.686 78.6971 356.351 82.0337C355.016 85.3704 339.294 164.771 339.294 164.771H349.661L370.396 79.0338V79.0288Z" fill="#DFDFE0"/>
<path d="M371.907 73.6469C378.094 73.6469 383.11 68.6434 383.11 62.4712C383.11 56.2991 378.094 51.2955 371.907 51.2955C365.719 51.2955 360.703 56.2991 360.703 62.4712C360.703 68.6434 365.719 73.6469 371.907 73.6469Z" fill="#FAAFB2"/>
<path d="M368.844 48.9991C368.844 48.9991 362.678 73.9736 369.534 85.6467L359.877 83.6016C359.877 83.6016 356.134 56.2704 363.66 51.3006L368.844 48.9991Z" fill="#6E67CB"/>
<path d="M389.316 139.405H355.736L337.364 214.624C337.026 217.8 339.046 220.765 342.139 221.594C352.22 224.287 376.41 228.101 413.018 217.474C416.539 216.453 418.539 212.745 417.436 209.253L389.316 139.405Z" fill="#6E67CB"/>
<path d="M375.74 79.0237L386.183 78.5664C390.707 78.9081 394.797 81.3603 397.22 85.1844C404.6 96.8224 418.408 121.35 406.081 124.711C389.83 129.138 381.957 104.491 381.957 104.491L375.74 79.0237Z" fill="#DFDFE0"/>
<path d="M372.158 86.3302C370.012 83.2549 369.937 79.6318 371.982 78.2399C374.032 76.8479 377.433 78.2198 379.579 81.2951C380.455 82.5111 381.009 83.9282 381.201 85.4156L390.122 98.5712L383.578 102.707L375.478 89.3C374.133 88.5914 372.995 87.5714 372.158 86.3302Z" fill="#FAAFB2"/>
<path d="M377.438 96.9682L384.807 90.2045L399.381 103.737L385.83 112.978L377.438 96.9682Z" fill="#DFDFE0"/>
<path d="M63.3267 65H294.681C303.698 65 311.007 72.2913 311.007 81.2861C311.007 90.281 303.698 97.5723 294.681 97.5723H63.3267C54.3095 97.5723 47 90.281 47 81.2861C47 72.2913 54.3095 65 63.3267 65Z" fill="#4DC5AC"/>
<path d="M102.418 286.402C102.418 286.734 102.685 287 103.017 287H470.4C470.733 287 471 286.734 471 286.402C471 286.07 470.733 285.804 470.4 285.804H103.017C102.685 285.804 102.418 286.07 102.418 286.402Z" fill="#606060"/>
<path d="M287.404 47.2102H335.437C336.585 47.2102 337.512 48.1348 337.512 49.2755C337.512 50.4162 336.585 51.3408 335.437 51.3408H287.404C286.255 51.3408 285.328 50.4162 285.328 49.2755C285.328 48.1348 286.255 47.2102 287.404 47.2102Z" fill="#DFDFE0"/>
<path d="M75.5755 0H123.608C124.757 0 125.684 0.924607 125.684 2.06529C125.684 3.20597 124.757 4.13058 123.608 4.13058H75.5755C74.4269 4.13561 73.5 3.211 73.5 2.06529C73.5 0.924607 74.4269 0 75.5755 0Z" fill="#DFDFE0"/>
<path d="M75.5755 18.0449H216.561C217.71 18.0449 218.637 18.9695 218.637 20.1152C218.637 21.2559 217.71 22.1805 216.561 22.1805H75.5755C74.4269 22.1805 73.5 21.2559 73.5 20.1152C73.5 18.9746 74.4269 18.0449 75.5755 18.0449Z" fill="#DFDFE0"/>
<path d="M117.763 131.093C117.763 141.927 126.568 150.711 137.429 150.711C140.719 150.711 143.817 149.907 146.537 148.485L165.594 178.635C166.763 180.479 169.256 180.942 171.009 179.635C172.647 178.414 172.999 176.113 171.805 174.454L150.844 145.435C154.688 141.852 157.096 136.751 157.096 131.093C157.096 120.259 148.29 111.475 137.429 111.475C126.568 111.475 117.763 120.259 117.763 131.093ZM120.463 131.093C120.463 121.747 128.059 114.164 137.434 114.164C146.809 114.164 154.406 121.742 154.406 131.093C154.406 140.44 146.809 148.023 137.434 148.023C128.064 148.023 120.463 140.445 120.463 131.093Z" fill="#838383"/>
</g>
<defs>
<clipPath id="clip0_1102_20518">
<rect width="471" height="287" fill="white"/>
</clipPath>
</defs>
</svg>
