<svg width="366" height="233" viewBox="0 0 366 233" fill="none" xmlns="http://www.w3.org/2000/svg">
<g clip-path="url(#clip0_1102_20707)">
<path d="M77.6646 54.8701L91.5067 73.7451C91.5067 73.7451 103.308 78.7022 117.101 88.6555L113.8 93.804C113.8 93.804 91.0333 84.4919 85.2072 80.5573L74.5684 63.897L77.6646 54.8701Z" fill="#A0616A"/>
<path d="M125.378 97.7975C126.699 95.8665 125.131 92.4996 121.875 90.2772C118.619 88.0548 114.909 87.8186 113.588 89.7496C112.267 91.6806 113.836 95.0476 117.091 97.27C120.347 99.4923 124.057 99.7285 125.378 97.7975Z" fill="#A0616A"/>
<path d="M70.8994 38.7569L75.4293 37.4734C75.4293 37.4734 78.0662 37.4784 79.5538 40.0656C81.0415 42.6527 91.5742 65.7202 91.075 66.6138C90.5757 67.5074 89.8788 67.7048 90.7734 68.2035C91.668 68.7022 92.4871 68.4494 91.8774 69.1966C91.2676 69.9439 92.1103 71.5855 92.1103 71.5855L80.4902 80.1494L70.8994 38.7569Z" fill="#6E67CB"/>
<path d="M53.3244 228.437L58.8509 228.436L61.4799 207.143L53.3232 207.143L53.3244 228.437Z" fill="#A0616A"/>
<path d="M72.2588 228.311C72.4309 228.601 72.5217 229.535 72.5217 229.872C72.5217 230.906 71.6819 231.745 70.646 231.745H53.5311C52.8244 231.745 52.2515 231.173 52.2515 230.467V229.755C52.2515 229.755 51.4048 227.616 53.1479 224.979C53.1479 224.979 55.3144 227.044 58.5517 223.81L59.5063 222.083L66.4166 227.131L70.2469 227.602C71.0848 227.705 71.8278 227.586 72.2588 228.311Z" fill="#4DC5AC"/>
<path d="M73.3262 223.057L78.7764 223.971L84.9009 203.407L76.8569 202.057L73.3262 223.057Z" fill="#A0616A"/>
<path d="M92.0194 226.067C92.1411 226.381 92.0757 227.317 92.0198 227.649C91.8482 228.67 90.8809 229.358 89.8593 229.187L72.9809 226.354C72.2839 226.237 71.8139 225.578 71.931 224.882L72.049 224.18C72.049 224.18 71.5689 221.93 73.7253 219.618C73.7253 219.618 75.5194 222.013 79.2483 219.36L80.4762 217.814L86.4537 223.936L90.1529 225.034C90.9622 225.275 91.7146 225.28 92.0194 226.067Z" fill="#4DC5AC"/>
<path d="M84.6554 113.797C84.6554 113.797 92.0805 122.481 92.0805 130.44C92.0805 138.4 92.2616 163.404 92.2616 163.404C92.2616 163.404 87.9152 202.439 86.8286 205.695C85.742 208.952 85.1987 214.379 85.1987 214.379L74.6948 211.846C74.6948 211.846 73.246 175.123 77.5924 166.44L67.0885 136.772L63.4665 220.71H51.2728C51.2728 220.71 44.9941 176.57 48.254 164.993C48.254 164.993 41.0099 120.852 42.8209 118.32C44.6319 115.787 84.6554 113.797 84.6554 113.797Z" fill="#3C907B"/>
<path d="M57.6714 27.3259L67.4508 28.0495L70.7107 33.4766C70.7107 33.4766 78.3169 36.7328 79.4035 41.4363C80.4902 46.1397 80.8524 101.134 80.8524 101.134L86.2854 109.094L85.9232 115.968L42.4588 118.139V111.529L38.4746 103.667C38.4746 103.667 42.821 40.7127 43.9076 40.3509C44.9943 39.9891 53.3249 34.2002 53.3249 34.2002L57.6714 27.3259Z" fill="#433BAB"/>
<path d="M62.0971 25.9796C68.8985 25.9796 74.412 20.4721 74.412 13.6783C74.412 6.88445 68.8985 1.37695 62.0971 1.37695C55.2958 1.37695 49.7822 6.88445 49.7822 13.6783C49.7822 20.4721 55.2958 25.9796 62.0971 25.9796Z" fill="#A0616A"/>
<path d="M71.9333 3.78399C71.3067 2.00873 69.5683 0.931719 67.6843 0.97367C67.6044 0.975427 67.5247 0.974689 67.4456 0.971447C66.4968 0.932697 65.5862 0.608996 64.6558 0.419098C62.9219 0.0651454 61.0936 0.183649 59.4201 0.758438C58.8999 0.937112 58.379 1.16179 57.8289 1.16185C57.2788 1.16193 56.6796 0.860622 56.5455 0.327753C56.5136 0.810203 56.4818 1.29263 56.4501 1.77505C56.271 1.38459 56.0921 0.994097 55.913 0.603612L55.5546 2.16082L54.406 0.859392C54.5087 1.43302 54.1739 2.01117 53.7206 2.37791C53.2673 2.74467 52.7075 2.94755 52.1708 3.17604C49.8545 4.16227 47.6797 5.90838 47.0123 8.33357C46.5906 9.8658 46.8112 11.492 47.0346 13.0652C47.2321 14.4561 47.4469 15.895 48.2037 17.079C48.6889 17.838 49.3882 18.4766 49.6836 19.3275C49.959 20.1205 49.8547 21.0285 50.2464 21.7711C50.6399 22.517 51.4521 22.939 52.247 23.2224C53.0418 23.506 53.8869 23.7064 54.5714 24.1996C55.2559 24.6929 56.0504 26.1138 57.5418 26.0373L58.0232 25.134C58.5184 24.731 56.6858 25.0505 56.6667 24.4128C56.6476 23.775 58.8717 23.381 58.5565 22.8261C58.0731 21.9751 57.419 21.2345 56.8743 20.4212C56.2373 19.4702 55.7363 18.359 55.9561 17.1982C56.0416 16.7467 56.2531 16.3201 56.5754 15.9921C57.5044 15.0466 58.5403 15.4622 59.5469 15.5974C60.2408 15.6907 61.0694 15.583 61.4298 14.9834C61.8512 14.2818 61.3815 13.3893 61.4389 12.5732C61.4998 11.7084 62.1557 10.9992 62.8695 10.5062C63.5834 10.0131 64.394 9.65393 65.0361 9.0708C65.6783 8.48762 66.1358 7.57657 65.8558 6.75598C68.8998 5.49006 69.3658 5.37032 72.5713 6.14233C72.4186 5.34161 72.2047 4.55268 71.9333 3.78399Z" fill="#2F2E41"/>
<path d="M19.9443 161.117V123.778C19.9443 122.754 20.3813 121.774 21.1433 121.089C21.9053 120.404 22.9268 120.072 23.9466 120.18C33.3934 118.91 42.2908 119.514 50.3542 122.961C51.2675 122.961 52.0106 123.703 52.0106 124.616V162.085C52.0106 162.997 51.2675 163.74 50.3542 163.74C41.4782 161.66 32.1164 162.202 22.5698 163.74C21.1221 163.74 19.9443 162.563 19.9443 161.117Z" fill="#E6E6E6"/>
<path d="M19.9443 164.441V126.708C19.9443 124.712 21.5694 123.089 23.5668 123.089C32.6003 120.728 41.5296 120.724 50.3542 123.089C51.2676 123.089 52.0106 123.831 52.0106 124.744V161.829C52.0106 162.74 51.2698 163.482 50.3583 163.484C41.657 161.972 32.3362 163.444 22.5698 167.064C21.1221 167.064 19.9443 165.887 19.9443 164.441Z" fill="#F2F2F2"/>
<path d="M40.8042 138.682H32.3572C29.3235 138.682 26.8555 136.217 26.8555 133.187C26.8555 130.157 29.3235 127.691 32.3572 127.691H40.8042C43.8381 127.691 46.3062 130.157 46.3062 133.187C46.3062 136.217 43.8381 138.682 40.8042 138.682Z" fill="#E6E6E6"/>
<path d="M48.5457 64.5695L48.2228 84.0505C48.2228 84.0505 47.1908 99.2329 44.6281 116.319L38.5195 116.708C38.5195 116.708 39.2711 90.0306 38.9973 83.011L39.4293 67.4198L48.5457 64.5695Z" fill="#A0616A"/>
<path d="M42.1508 128.394C44.4908 128.315 46.2792 125.059 46.1452 121.122C46.0113 117.185 44.0057 114.058 41.6657 114.138C39.3257 114.217 37.5373 117.473 37.6713 121.41C37.8052 125.347 39.8108 128.474 42.1508 128.394Z" fill="#A0616A"/>
<path d="M48.4506 39.7678L43.745 39.939C43.745 39.939 41.2377 40.7543 40.6192 43.6732C40.0007 46.592 35.6655 76.7994 36.4158 77.4962C37.166 78.193 37.89 78.1667 37.1924 78.9161C36.4949 79.6656 35.6376 79.6768 36.448 80.2004C37.2583 80.7239 36.9623 82.5449 36.9623 82.5449L49.9766 81.6239L48.4506 39.7678Z" fill="#6E67CB"/>
<path d="M358.91 213.817H233.711C232.985 213.817 232.266 213.706 231.573 213.488L231.5 213.458C192.297 193.997 158.686 183.375 128.745 180.986L128.631 180.963C125.67 180.027 123.68 177.313 123.68 174.211V7.08837C123.68 4.80636 124.737 2.72394 126.58 1.37535C128.423 0.0267547 130.729 -0.351662 132.908 0.335888L231.882 31.6074C232.475 31.7948 233.091 31.8895 233.711 31.8895H358.91C362.82 31.8895 366 35.0667 366 38.9717V206.735C366 210.641 362.82 213.817 358.91 213.817ZM231.92 212.523C232.5 212.702 233.103 212.793 233.711 212.793H358.91C362.254 212.793 364.974 210.076 364.974 206.735V38.9717C364.974 35.6314 362.254 32.914 358.91 32.914H233.711C232.985 32.914 232.266 32.8032 231.573 32.5844L132.598 1.31282C130.735 0.723561 128.762 1.0482 127.186 2.20171C125.609 3.35547 124.705 5.1365 124.705 7.08837V174.211C124.705 176.846 126.383 179.152 128.886 179.969C158.935 182.378 192.639 193.027 231.92 212.523Z" fill="#606060"/>
<path d="M237.055 206.229C271.191 194.162 309.274 195.547 349.731 205.025C354.81 206.215 359.68 202.395 359.68 197.184V44.4825C359.68 40.7744 357.149 37.5321 353.543 36.6513C310.864 26.2262 271 24.3081 235.868 36.6961C233.295 37.6037 230.438 37.112 228.266 35.4606C198.662 12.9502 168.364 1.66375 137.162 5.01499C133.08 5.4534 130.001 8.92825 130.001 13.0291V167.396C130.001 171.529 133.132 174.985 137.247 175.413C170.832 178.902 201.693 189.476 230.393 205.67C232.425 206.816 234.855 207.006 237.055 206.229Z" fill="#F2F2F2"/>
<path d="M235.958 197.665C233.633 197.665 231.343 197.027 229.326 195.775C205.222 180.822 178.962 172.087 151.275 169.812C144.784 169.278 139.699 163.748 139.699 157.221V25.3664C139.699 18.5989 144.953 13.0537 151.661 12.7423C171.819 11.8034 196.295 20.7831 228.685 40.9918C231.424 42.7008 234.756 43.2082 237.826 42.3859C268.608 34.1322 301.975 33.8911 339.836 41.6488C345.714 42.8533 349.98 48.0646 349.98 54.0405V182.743C349.98 186.626 348.231 190.234 345.182 192.64C342.11 195.063 338.158 195.932 334.338 195.024C298.522 186.508 267.767 187.124 240.313 196.906C238.888 197.414 237.416 197.665 235.958 197.665ZM154.539 13.7007C153.584 13.7007 152.643 13.7222 151.708 13.7658C145.549 14.0516 140.725 19.1471 140.725 25.3664V157.221C140.725 163.219 145.396 168.301 151.359 168.791C179.21 171.08 205.624 179.865 229.867 194.905C232.883 196.777 236.565 197.154 239.969 195.942C267.614 186.09 298.56 185.464 334.575 194.027C338.088 194.862 341.722 194.064 344.546 191.836C347.348 189.625 348.954 186.311 348.954 182.743V54.0405C348.954 48.5488 345.033 43.7595 339.63 42.6522C301.929 34.9268 268.716 35.1634 238.092 43.3753C234.747 44.2712 231.121 43.7197 228.141 41.8606C197.447 22.7094 173.941 13.7007 154.539 13.7007Z" fill="white"/>
<path d="M233.63 43.1511L232.604 43.1605L234.031 197.431L235.057 197.422L233.63 43.1511Z" fill="white"/>
<path d="M149.697 32.9702L149.375 33.9426L221.183 57.6763L221.505 56.7039L149.697 32.9702Z" fill="#3F3D56"/>
<path d="M149.697 51.9574L149.375 52.9298L221.183 76.6635L221.505 75.6911L149.697 51.9574Z" fill="#3F3D56"/>
<path d="M149.697 70.9442L149.375 71.9166L221.183 95.6503L221.505 94.678L149.697 70.9442Z" fill="#3F3D56"/>
<path d="M149.697 89.9312L149.375 90.9036L221.183 114.637L221.505 113.665L149.697 89.9312Z" fill="#3F3D56"/>
<path d="M336.975 57.7329H250.912V58.7574H336.975V57.7329Z" fill="#3F3D56"/>
<path d="M336.975 75.665H250.912V76.6895H336.975V75.665Z" fill="#3F3D56"/>
<path d="M336.975 93.5969H250.912V94.6214H336.975V93.5969Z" fill="#3F3D56"/>
<path d="M336.975 111.529H250.912V112.554H336.975V111.529Z" fill="#3F3D56"/>
<path d="M336.975 129.461H250.912V130.486H336.975V129.461Z" fill="#3F3D56"/>
<path d="M336.975 147.394H250.912V148.418H336.975V147.394Z" fill="#3F3D56"/>
<path d="M27.8234 224.122C26.764 224.188 26.1786 222.873 26.98 222.107L27.0598 221.79C27.0493 221.765 27.0387 221.739 27.0281 221.714C25.9568 219.162 22.3259 219.18 21.2636 221.736C20.3208 224.004 19.1205 226.276 18.8249 228.674C18.6924 229.733 18.752 230.811 18.9872 231.85C16.7781 227.03 15.6155 221.766 15.6155 216.473C15.6155 215.143 15.6884 213.813 15.8374 212.486C15.96 211.401 16.1289 210.322 16.3475 209.254C17.5299 203.477 20.0901 197.975 23.783 193.38C25.5583 192.411 27.0388 190.896 27.933 189.079C28.2543 188.424 28.506 187.719 28.6252 187.002C28.4232 187.028 27.8635 183.954 28.0158 183.766C27.7343 183.339 27.2304 183.127 26.9229 182.711C25.3935 180.639 23.2866 181.001 22.1866 183.816C19.8369 185 19.8141 186.965 21.2559 188.854C22.1732 190.056 22.2992 191.683 23.1041 192.97C23.0212 193.076 22.9351 193.178 22.8523 193.284C21.3339 195.23 20.0207 197.321 18.9136 199.517C19.2265 197.076 18.7645 194.135 17.977 192.239C17.0806 190.079 15.4003 188.259 13.9206 186.392C12.1433 184.149 8.49868 185.127 8.18555 187.971C8.18252 187.999 8.17957 188.026 8.17667 188.054C8.39646 188.177 8.61177 188.309 8.82209 188.448C10.0218 189.241 9.60715 191.098 8.18569 191.317L8.1535 191.322C8.233 192.113 8.36879 192.897 8.56749 193.668C6.66925 201.001 10.7674 203.672 16.6191 203.792C16.7482 203.858 16.8741 203.924 17.0033 203.987C16.4104 205.654 15.9368 207.365 15.5857 209.098C15.2711 210.63 15.0525 212.178 14.9299 213.733C14.7776 215.695 14.7908 217.667 14.9564 219.626L14.9465 219.556C14.5259 217.399 13.3534 215.384 11.651 213.988C9.11494 211.907 5.53196 211.141 2.796 209.468C1.47899 208.663 -0.208668 209.703 0.0211856 211.229L0.0323747 211.302C0.439751 211.467 0.837184 211.659 1.22139 211.874C1.44117 211.998 1.65648 212.129 1.86681 212.268C3.06647 213.061 2.65187 214.919 1.2304 215.138L1.19818 215.143C1.175 215.146 1.15512 215.149 1.13198 215.153C1.83082 216.81 2.80453 218.349 4.02337 219.675C5.21029 226.077 10.3081 226.684 15.7612 224.82H15.7646C16.3607 227.414 17.2318 229.948 18.3513 232.363H27.5919C27.625 232.26 27.6548 232.155 27.6846 232.052C26.8301 232.105 25.969 232.055 25.1277 231.9C25.8133 231.059 26.4989 230.212 27.1845 229.372C27.2011 229.356 27.2143 229.339 27.2276 229.323C27.5753 228.892 27.9264 228.466 28.2742 228.036L28.2743 228.035C28.2961 226.715 28.1374 225.399 27.8234 224.122Z" fill="#F2F2F2"/>
<path d="M131.177 232.39C131.177 232.729 130.906 233 130.567 233H0.682486C0.34406 233 0.0722656 232.729 0.0722656 232.39C0.0722656 232.052 0.34406 231.781 0.682486 231.781H130.567C130.906 231.781 131.177 232.052 131.177 232.39Z" fill="#CCCCCC"/>
<path d="M340.59 199.987C347.104 199.987 352.384 194.713 352.384 188.206C352.384 181.7 347.104 176.425 340.59 176.425C334.076 176.425 328.796 181.7 328.796 188.206C328.796 194.713 334.076 199.987 340.59 199.987Z" fill="#4DC5AC"/>
<path d="M346.113 187.763L338.796 183.542C338.454 183.344 338.026 183.591 338.026 183.985V187.694H335.831C335.548 187.694 335.318 187.923 335.318 188.206C335.318 188.489 335.548 188.718 335.831 188.718H338.026V192.427C338.026 192.821 338.454 193.068 338.796 192.871L346.113 188.65C346.455 188.453 346.455 187.96 346.113 187.763Z" fill="white"/>
<path d="M172.64 154.997C173.1 149.747 175.282 144.731 178.774 140.784C182.176 136.94 186.826 134.302 191.841 133.228C194.64 132.628 197.54 132.511 200.375 132.915C201.053 133.012 201.035 134.088 200.35 133.99C195.525 133.302 190.538 134.143 186.203 136.368C181.759 138.649 178.202 142.359 176.005 146.833C174.749 149.391 173.965 152.184 173.717 155.022C173.656 155.709 172.58 155.688 172.64 154.997Z" fill="white"/>
<path d="M199.181 128.598L207.469 132.683C207.77 132.831 207.82 133.322 207.564 133.533L199.718 140.012C199.187 140.45 198.439 139.675 198.974 139.233L206.82 132.755L206.915 133.605L198.627 129.521C198.005 129.214 198.563 128.294 199.181 128.598Z" fill="white"/>
</g>
<defs>
<clipPath id="clip0_1102_20707">
<rect width="366" height="233" fill="white"/>
</clipPath>
</defs>
</svg>
