<svg width="373" height="335" viewBox="0 0 373 335" fill="none" xmlns="http://www.w3.org/2000/svg">
<path d="M221.744 103.254H130.07C126.552 103.254 123.69 100.391 123.69 96.8715V60.4167C123.69 56.8973 126.552 54.0343 130.07 54.0343H221.744C225.261 54.0343 228.123 56.8973 228.123 60.4167V96.8715C228.123 100.391 225.261 103.254 221.744 103.254Z" fill="#5148C0"/>
<path d="M221.744 214.893H130.07C126.552 214.893 123.69 212.03 123.69 208.51V172.055C123.69 168.536 126.552 165.673 130.07 165.673H221.744C225.261 165.673 228.123 168.536 228.123 172.055V208.51C228.123 212.03 225.261 214.893 221.744 214.893Z" fill="#275E50"/>
<path d="M221.2 158.423H185.159C181.457 158.423 178.445 155.409 178.445 151.705V116.745C178.445 113.041 181.457 110.028 185.159 110.028H221.2C224.902 110.028 227.913 113.041 227.913 116.745V151.705C227.913 155.409 224.902 158.423 221.2 158.423Z" fill="#4DC5AC"/>
<path d="M166.236 158.423H130.195C126.493 158.423 123.481 155.409 123.481 151.705V116.745C123.481 113.041 126.493 110.028 130.195 110.028H166.236C169.938 110.028 172.949 113.041 172.949 116.745V151.705C172.949 155.409 169.938 158.423 166.236 158.423Z" fill="#6E67CB"/>
<path d="M274.356 81.9173L272.042 87.7083C272.042 87.7083 269.909 95.8145 272.41 99.0481C274.905 102.276 275.461 127.029 272.778 128.855C270.096 130.686 306.774 111.906 306.774 111.906C306.774 111.906 292.456 78.6837 292.214 78.5627C291.972 78.4417 282.59 75.516 282.59 75.516L274.367 81.9173H274.356Z" fill="#1C443A"/>
<path d="M298.238 110.542L285.948 114.584V96.8868H297.101L298.238 110.542Z" fill="#F2A2A5"/>
<path d="M259.026 211.022C258.361 215.075 255.657 217.985 252.991 217.517C250.325 217.05 248.698 213.382 249.369 209.323C249.611 207.701 250.254 206.161 251.243 204.847L254.288 187.705L262.577 189.443L258.691 206.155C259.202 207.739 259.317 209.406 259.026 211.022Z" fill="#F2A2A5"/>
<path d="M293.621 308.682H282.111V325.02H293.621V308.682Z" fill="#F2A2A5"/>
<path d="M270.898 334.914C269.689 334.914 268.612 334.886 267.798 334.809C264.742 334.529 261.824 332.269 260.356 330.949C259.697 330.355 259.488 329.409 259.829 328.595C260.076 328.012 260.565 327.572 261.175 327.402L269.255 325.092L282.336 316.26L282.485 316.524C282.54 316.623 283.826 318.938 284.255 320.5C284.42 321.094 284.376 321.589 284.128 321.974C283.958 322.238 283.716 322.392 283.524 322.48C283.76 322.727 284.502 323.233 286.789 323.596C290.125 324.124 290.829 320.665 290.856 320.522L290.878 320.406L290.977 320.34C292.565 319.317 293.544 318.85 293.879 318.949C294.088 319.009 294.44 319.119 295.391 328.54C295.484 328.837 296.149 331.004 295.698 333.077C295.209 335.332 285.36 334.556 283.386 334.38C283.331 334.386 275.955 334.914 270.904 334.914L270.898 334.914Z" fill="#5BBBA3"/>
<path d="M326.395 295.846L316.629 301.94L325.27 315.804L335.036 309.71L326.395 295.846Z" fill="#F2A2A5"/>
<path d="M313.425 332.67C312.073 332.67 310.831 332.505 309.946 332.351C309.077 332.197 308.396 331.504 308.253 330.635C308.154 330.008 308.335 329.376 308.764 328.908L314.398 322.672L320.829 308.253L321.093 308.396C321.192 308.451 323.506 309.732 324.698 310.832C325.154 311.25 325.38 311.695 325.369 312.152C325.363 312.471 325.242 312.724 325.122 312.905C325.451 312.993 326.347 313.026 328.48 312.124C331.591 310.81 330.36 307.499 330.305 307.362L330.261 307.252L330.31 307.147C331.118 305.437 331.695 304.524 332.036 304.43C332.25 304.37 332.602 304.276 338.39 311.772C338.626 311.97 340.336 313.461 341.05 315.457C341.825 317.629 333.058 322.188 331.294 323.079C331.239 323.123 322.066 329.794 318.295 331.691C316.8 332.445 315.03 332.676 313.42 332.676L313.425 332.67Z" fill="#5BBBA3"/>
<path d="M302.096 172.048H269.87L266.946 202.042L279.742 312.867H296.193L289.614 248.859L316.299 306.647L330.919 296.407L310.082 242.457C310.082 242.457 317.525 195.459 311.676 183.751C305.828 172.048 302.096 172.048 302.096 172.048Z" fill="#3C907B"/>
<path d="M318.124 173.879H262.192L282.298 107.677H304.598L318.124 173.879Z" fill="#D6D6D7"/>
<path d="M285.816 107.688C285.816 107.688 271.926 107.319 270.464 110.982C269.002 114.639 251.82 201.69 251.82 201.69H263.154L285.821 107.688L285.816 107.688Z" fill="#D6D6D7"/>
<path d="M287.471 101.787C294.234 101.787 299.717 96.301 299.717 89.534C299.717 82.767 294.234 77.2812 287.471 77.2812C280.707 77.2812 275.225 82.767 275.225 89.534C275.225 96.301 280.707 101.787 287.471 101.787Z" fill="#F2A2A5"/>
<path d="M289.845 70.4949C289.845 70.4949 304.586 66.7168 309.099 86.3443C309.099 86.3443 309.22 91.4643 311.781 93.5376C314.343 95.6109 313.485 106.34 313.485 106.34C313.485 106.34 318.361 114.386 314.216 118.043C314.216 118.043 312.386 125.478 315.068 129.746C317.75 134.014 327.864 157.485 311.045 158.915C311.045 158.915 302.514 153.762 306.538 138.402C310.561 123.042 306.048 114.557 306.048 114.557C306.048 114.557 293.132 109.871 293.863 99.873C294.594 89.875 285.574 79.998 284.97 80.1245C284.365 80.2509 278.022 76.5883 275.219 87.8072L272.218 87.2957C272.218 87.2957 270.954 68.4216 289.845 70.4949Z" fill="#5BBBA3"/>
<path d="M327.671 209.054C328.49 213.079 326.99 216.758 324.329 217.27C321.669 217.781 318.849 214.927 318.036 210.901C317.69 209.296 317.745 207.635 318.195 206.051L314.958 188.942L323.324 187.617L325.627 204.621C326.665 205.919 327.363 207.437 327.671 209.054Z" fill="#F2A2A5"/>
<path d="M294.857 107.765C294.857 107.765 307.093 106.214 308.555 109.871C310.017 113.528 327.199 200.579 327.199 200.579H315.865L294.857 107.765Z" fill="#D6D6D7"/>
<path d="M373 334.13C373 334.587 372.632 334.955 372.176 334.955H0.824467C0.368262 334.955 0 334.587 0 334.13C0 333.674 0.368262 333.305 0.824467 333.305H372.176C372.632 333.305 373 333.674 373 334.13Z" fill="#606060"/>
</svg>
